Coordinates
version=1
nRows=17
nColumns=38
inDegrees=no

Units are S.I. units (second, meters, Newtons, ...)
If the header above contains a line with 'inDegrees', this indicates whether rotational values are in degrees (yes) or radians (no).

endheader
time	pelvis_tilt	pelvis_list	pelvis_rotation	pelvis_tx	pelvis_ty	pelvis_tz	hip_flexion_r	hip_adduction_r	hip_rotation_r	knee_angle_r	ankle_angle_r	subtalar_angle_r	mtp_angle_r	hip_flexion_l	hip_adduction_l	hip_rotation_l	knee_angle_l	ankle_angle_l	subtalar_angle_l	mtp_angle_l	lumbar_extension	lumbar_bending	lumbar_rotation	arm_flex_r	arm_add_r	arm_rot_r	elbow_flex_r	pro_sup_r	wrist_flex_r	wrist_dev_r	arm_flex_l	arm_add_l	arm_rot_l	elbow_flex_l	pro_sup_l	wrist_flex_l	wrist_dev_l
2.36	2.56517	1.52234	-0.978826	0.7206	1.56065	0.915623	0.364671	-0.0111219	-0.331143	0.0735091	0.0612114	0	0	-0.354364	0.00711426	-0.218004	0.0879761	0.256072	0	0	-0.187841	0.0628419	-0.170217	-0.0107824	-0.273221	0.355311	0.656923	1.37713	0	0	0.00741156	-0.443238	0.207112	0.845736	1.03159	0	0
2.37	2.59473	1.52	-1.00144	0.720817	1.57177	0.914349	0.36853	-0.0136938	-0.343105	0.110236	0.0668319	0	0	-0.360314	0.00037784	-0.223153	0.108415	0.265649	0	0	-0.189511	0.0668309	-0.176455	-0.0103031	-0.273715	0.358707	0.650524	1.37628	0	0	0.00556442	-0.438733	0.206921	0.840961	1.03362	0	0
2.38	2.62472	1.51844	-1.02387	0.721023	1.58322	0.913105	0.371266	-0.0168734	-0.350504	0.146354	0.0732962	0	0	-0.364519	-0.00660795	-0.228136	0.131364	0.274122	0	0	-0.189587	0.0703919	-0.183321	-0.0109831	-0.274473	0.361775	0.644629	1.3749	0	0	0.00211738	-0.433735	0.206617	0.836257	1.03467	0	0
2.39	2.64391	1.51779	-1.03537	0.721334	1.59494	0.911917	0.37293	-0.0191796	-0.354358	0.177083	0.0786506	0	0	-0.366311	-0.014452	-0.233773	0.157035	0.281261	0	0	-0.18779	0.0738979	-0.1902	-0.0127743	-0.275146	0.363895	0.638968	1.3733	0	0	-0.00267744	-0.428145	0.206154	0.831011	1.0347	0	0
2.4	2.63932	1.51747	-1.02333	0.721818	1.60685	0.910861	0.373288	-0.0189826	-0.35462	0.199322	0.0772316	0	0	-0.365475	-0.0242606	-0.240812	0.18609	0.286992	0	0	-0.18452	0.0782362	-0.196576	-0.0153532	-0.275558	0.364741	0.633101	1.37165	0	0	-0.00841547	-0.421913	0.205541	0.825033	1.03393	0	0
2.41	2.60464	1.51667	-0.981505	0.722518	1.61894	0.910008	0.371402	-0.0154194	-0.35189	0.211992	0.0617147	0	0	-0.362284	-0.0369962	-0.249219	0.218959	0.291178	0	0	-0.180308	0.084142	-0.201918	-0.0187919	-0.275983	0.364664	0.627117	1.36997	0	0	-0.0144519	-0.414981	0.205228	0.817941	1.0325	0	0
2.42	2.55139	1.51544	-0.921709	0.723438	1.63123	0.909328	0.36757	-0.0101316	-0.34985	0.218738	0.0330085	0	0	-0.356582	-0.0520299	-0.258594	0.256157	0.293299	0	0	-0.175343	0.0910185	-0.206084	-0.0229161	-0.27684	0.364707	0.621361	1.36854	0	0	-0.0210033	-0.407568	0.205482	0.810315	1.0306	0	0
2.43	2.49326	1.51447	-0.857959	0.724569	1.64369	0.908719	0.363764	-0.00558736	-0.351697	0.225886	0.0011028	0	0	-0.347789	-0.0682411	-0.268353	0.298253	0.292665	0	0	-0.169316	0.0976351	-0.209001	-0.0279685	-0.277849	0.364223	0.616272	1.36701	0	0	-0.0282718	-0.399899	0.206054	0.80259	1.02823	0	0
2.44	2.43092	1.51326	-0.790898	0.725917	1.65625	0.908252	0.360969	-0.00175456	-0.355944	0.237091	-0.0242634	0	0	-0.336041	-0.0860147	-0.277821	0.345438	0.287838	0	0	-0.162747	0.104253	-0.210418	-0.0339541	-0.278858	0.362909	0.612031	1.36454	0	0	-0.0356415	-0.392129	0.207605	0.794565	1.02554	0	0
2.45	2.36979	1.51046	-0.726205	0.727433	1.66881	0.908114	0.359178	0.00254561	-0.359613	0.254971	-0.0382604	0	0	-0.322365	-0.105782	-0.285942	0.397217	0.277261	0	0	-0.157306	0.111904	-0.209792	-0.0401701	-0.280444	0.361363	0.60851	1.36161	0	0	-0.0423629	-0.384058	0.210423	0.786055	1.02283	0	0
2.46	2.31073	1.50548	-0.664548	0.729077	1.68128	0.908399	0.358141	0.00841158	-0.360695	0.279837	-0.0389224	0	0	-0.306072	-0.127972	-0.291589	0.453797	0.258926	0	0	-0.153513	0.121256	-0.207214	-0.0455512	-0.28302	0.361939	0.604816	1.35776	0	0	-0.0480537	-0.375501	0.214352	0.776705	1.02036	0	0
2.47	2.24654	1.49893	-0.598958	0.730827	1.69357	0.908953	0.358325	0.0158952	-0.360613	0.309382	-0.029412	0	0	-0.285278	-0.152213	-0.293655	0.515179	0.230887	0	0	-0.150345	0.132281	-0.203282	-0.0498008	-0.286425	0.364264	0.601381	1.35287	0	0	-0.053655	-0.366425	0.218209	0.767507	1.01811	0	0
2.48	2.15751	1.49266	-0.509336	0.732663	1.70555	0.909381	0.361406	0.0240884	-0.362344	0.339267	-0.0162012	0	0	-0.256114	-0.177815	-0.290678	0.582384	0.193051	0	0	-0.144798	0.144197	-0.198361	-0.0535727	-0.29115	0.370008	0.599272	1.34341	0	0	-0.0590605	-0.35724	0.222941	0.758421	1.01523	0	0
2.49	2.0437	1.48743	-0.395631	0.734627	1.71727	0.909499	0.366562	0.0327892	-0.364164	0.363911	-0.00542457	0	0	-0.218665	-0.202853	-0.281502	0.652792	0.145754	0	0	-0.135468	0.155682	-0.19306	-0.0571594	-0.297354	0.381428	0.599049	1.32534	0	0	-0.0651683	-0.348512	0.228726	0.750367	1.01128	0	0
2.5	1.94096	1.48253	-0.294014	0.736676	1.72884	0.909515	0.369289	0.0420213	-0.364612	0.380271	0.00117443	0	0	-0.178701	-0.224819	-0.266955	0.721806	0.0926592	0	0	-0.125792	0.165623	-0.187182	-0.0608072	-0.303617	0.391149	0.600786	1.31126	0	0	-0.0724318	-0.34065	0.234354	0.74506	1.00839	0	0
2.51	1.83916	1.47866	-0.193938	0.738745	1.74028	0.909309	0.371011	0.050971	-0.365056	0.390973	0.00664323	0	0	-0.13585	-0.243219	-0.248675	0.789535	0.0369801	0	0	-0.114806	0.173471	-0.180951	-0.0650671	-0.310189	0.39933	0.605565	1.29913	0	0	-0.0805676	-0.333475	0.239876	0.741834	1.00633	0	0
2.52	1.75171	1.4755	-0.108218	0.740835	1.75158	0.909099	0.370206	0.0595092	-0.365073	0.397323	0.0139746	0	0	-0.092597	-0.258014	-0.227771	0.85471	-0.0205231	0	0	-0.104335	0.179013	-0.174939	-0.0683164	-0.317741	0.41219	0.612064	1.28541	0	0	-0.0894473	-0.32731	0.24501	0.740898	1.00469	0	0
